<svg width="29" height="29" viewBox="0 0 29 29" fill="none" xmlns="http://www.w3.org/2000/svg">
<g clip-path="url(#clip0_7_115)">
<mask id="mask0_7_115" style="mask-type:luminance" maskUnits="userSpaceOnUse" x="0" y="-4" width="29" height="30">
<path d="M28.7623 11.3331C28.7623 3.39059 22.3237 -3.04808 14.3812 -3.04808C6.43867 -3.04808 0 3.39059 0 11.3331C0 19.2756 6.43867 25.7143 14.3812 25.7143C22.3237 25.7143 28.7623 19.2756 28.7623 11.3331Z" fill="white"/>
</mask>
<g mask="url(#mask0_7_115)">
<path d="M12.1914 5.19074C15.6662 1.4871 16.5516 9.36631 21.2441 5.92397C21.0228 7.59175 20.5198 8.42054 19.7024 8.92797C20.5558 9.90131 21.127 11.0211 21.292 12.1253C21.2931 12.131 21.6916 14.0048 21.6916 14.7594C21.6916 15.2683 20.9588 16.0933 20.0422 16.6196C25.1078 18.2028 28.7623 22.7077 28.7623 28.018C28.7623 34.6482 23.0654 40.0229 16.038 40.0229C9.01055 40.0229 3.31369 34.6482 3.31367 28.018C3.31367 23.9593 5.44845 20.3712 8.71638 18.1983C8.04314 18.0406 7.19752 17.7291 6.77998 17.1249C6.02557 16.0332 5.84342 14.4202 5.84277 14.4144C5.84255 14.4119 5.84232 14.4096 5.8421 14.4071C5.75603 13.4629 5.84474 12.5429 6.08154 11.6793C4.7902 11.5174 4.02355 10.869 3.10535 8.86107C8.59975 10.7797 6.72705 3.33899 11.1335 5.86378C11.2754 5.9451 11.4052 6.02723 11.5236 6.11C11.6665 5.82369 11.8847 5.51765 12.1914 5.19074ZM12.1387 12.4763C11.7817 12.5288 11.4333 12.578 11.0976 12.6243C11.1208 12.8738 11.1787 14.1212 9.96834 14.3048C8.75797 14.4884 8.70006 13.1027 8.67258 12.934C7.85462 13.0306 7.34905 13.0821 7.34762 13.0822C7.34762 13.0822 7.45846 15.382 10.1737 14.9504C12.1235 14.6821 12.4156 12.8838 12.1387 12.4763ZM18.2191 11.2961C18.2191 11.2961 18.8429 12.7135 17.1665 13.0398C15.4901 13.3662 15.3325 11.9389 15.3325 11.9389L14.5091 12.0992C14.5094 12.1 15.2625 14.3801 17.6385 13.7487C20.015 13.1173 19.4556 11.0284 19.4556 11.0284L18.2191 11.2961Z" fill="#141414"/>
</g>
</g>
<defs>
<clipPath id="clip0_7_115">
<rect width="28.7623" height="28.7623" fill="white"/>
</clipPath>
</defs>
</svg>
